<?xml version="1.0" encoding="UTF-8" standalone="no"?>
<!-- Generator: Adobe Illustrator 22.1.0, SVG Export Plug-In . SVG Version: 6.00 Build 0)  -->

<svg
   xmlns:dc="http://purl.org/dc/elements/1.1/"
   xmlns:cc="http://creativecommons.org/ns#"
   xmlns:rdf="http://www.w3.org/1999/02/22-rdf-syntax-ns#"
   xmlns:svg="http://www.w3.org/2000/svg"
   xmlns="http://www.w3.org/2000/svg"
   xmlns:sodipodi="http://sodipodi.sourceforge.net/DTD/sodipodi-0.dtd"
   xmlns:inkscape="http://www.inkscape.org/namespaces/inkscape"
   version="1.1"
   id="svg3035"
   inkscape:version="0.48.2 r9819"
   sodipodi:docname="4crossGreen.png"
   x="0px"
   y="0px"
   viewBox="0 0 595.3 841.9"
   style="enable-background:new 0 0 595.3 841.9;"
   xml:space="preserve"
   width="100%"
   height="100%"><metadata
   id="metadata17"><rdf:RDF><cc:Work
       rdf:about=""><dc:format>image/svg+xml</dc:format><dc:type
         rdf:resource="http://purl.org/dc/dcmitype/StillImage" /><dc:title></dc:title></cc:Work></rdf:RDF></metadata><defs
   id="defs15" />
<style
   type="text/css"
   id="style3">
	.st0{fill:#008000;stroke:#000000;stroke-width:1.1597;stroke-miterlimit:3.5;}
</style>
<sodipodi:namedview
   bordercolor="#666666"
   borderopacity="1.0"
   id="base"
   inkscape:current-layer="layer1_1_"
   inkscape:cx="22.571267"
   inkscape:cy="418.57008"
   inkscape:document-units="mm"
   inkscape:pageopacity="0.0"
   inkscape:pageshadow="2"
   inkscape:snap-global="false"
   inkscape:snap-object-midpoints="true"
   inkscape:window-height="991"
   inkscape:window-maximized="1"
   inkscape:window-width="958"
   inkscape:window-x="952"
   inkscape:window-y="0"
   inkscape:zoom="0.61404867"
   pagecolor="#ffffff"
   showgrid="true">
	<inkscape:grid
   id="grid3046"
   type="xygrid" />
</sodipodi:namedview>
<g
   id="layer1"
   inkscape:groupmode="layer"
   inkscape:label="Layer 1">
	
		<path
   id="path3797"
   inkscape:flatsided="false"
   inkscape:randomized="0"
   inkscape:rounded="0.2"
   inkscape:transform-center-x="-32.713721"
   inkscape:transform-center-y="-2.5436384"
   sodipodi:arg1="0.78594215"
   sodipodi:arg2="1.6133242"
   sodipodi:cx="54.148804"
   sodipodi:cy="212.06393"
   sodipodi:r1="76.557526"
   sodipodi:r2="13.288133"
   sodipodi:sides="4"
   sodipodi:type="star"
   class="st0"
   d="M 108.25369,266.22772 C 98.19703,275.46283 67.237562,225.3474 53.583858,225.34005 40.108216,225.3328 9.099688,276.09433 -0.01498216,266.16882 -9.2500905,256.11216 40.865335,225.15269 40.872686,211.49899 40.879941,198.02335 -9.8815959,167.01482 0.04391455,157.90015 10.100577,148.66504 41.060045,198.78047 54.713749,198.78782 c 13.475642,0.007 44.48417,-50.75429 53.598841,-40.82877 9.23511,10.05666 -40.880317,41.01613 -40.887668,54.66983 -0.0073,13.47564 50.754278,44.48417 40.828768,53.59884 z"
   transform="matrix(2.1523961,0,0,2.1523961,16.926709,-185.20938)"
   style="fill:#008000;stroke:#000000;stroke-width:1.15970004;stroke-miterlimit:3.5" />
</g>
<g
   id="layer1_1_"
   inkscape:groupmode="layer"
   inkscape:label="Layer 1">
	
		<path
   id="path3797_1_"
   inkscape:flatsided="false"
   inkscape:randomized="0"
   inkscape:rounded="0.2"
   inkscape:transform-center-x="-32.713721"
   inkscape:transform-center-y="-2.5436373"
   sodipodi:arg1="0.78594215"
   sodipodi:arg2="1.6133242"
   sodipodi:cx="54.148804"
   sodipodi:cy="212.06393"
   sodipodi:r1="76.557526"
   sodipodi:r2="13.288133"
   sodipodi:sides="4"
   sodipodi:type="star"
   class="st0"
   d="M 108.25369,266.22772 C 98.19703,275.46283 67.237562,225.3474 53.583858,225.34005 40.108216,225.3328 9.099688,276.09433 -0.01498216,266.16882 -9.2500905,256.11216 40.865335,225.15269 40.872686,211.49899 40.879941,198.02335 -9.8815959,167.01482 0.04391455,157.90015 10.100577,148.66504 41.060045,198.78047 54.713749,198.78782 c 13.475642,0.007 44.48417,-50.75429 53.598841,-40.82877 9.23511,10.05666 -40.880317,41.01613 -40.887668,54.66983 -0.0073,13.47564 50.754278,44.48417 40.828768,53.59884 z"
   transform="matrix(2.1523961,0,0,2.1523961,16.926709,109.64338)"
   style="fill:#008000;stroke:#000000;stroke-width:1.15970004;stroke-miterlimit:3.5" />
</g>
<g
   id="layer1_2_"
   inkscape:groupmode="layer"
   inkscape:label="Layer 1">
	
		<path
   id="path3797_2_"
   inkscape:flatsided="false"
   inkscape:randomized="0"
   inkscape:rounded="0.2"
   inkscape:transform-center-x="-32.713721"
   inkscape:transform-center-y="-2.5436384"
   sodipodi:arg1="0.78594215"
   sodipodi:arg2="1.6133242"
   sodipodi:cx="54.148804"
   sodipodi:cy="212.06393"
   sodipodi:r1="76.557526"
   sodipodi:r2="13.288133"
   sodipodi:sides="4"
   sodipodi:type="star"
   class="st0"
   d="M 108.25369,266.22772 C 98.19703,275.46283 67.237562,225.3474 53.583858,225.34005 40.108216,225.3328 9.099688,276.09433 -0.01498216,266.16882 -9.2500905,256.11216 40.865335,225.15269 40.872686,211.49899 40.879941,198.02335 -9.8815959,167.01482 0.04391455,157.90015 10.100577,148.66504 41.060045,198.78047 54.713749,198.78782 c 13.475642,0.007 44.48417,-50.75429 53.598841,-40.82877 9.23511,10.05666 -40.880317,41.01613 -40.887668,54.66983 -0.0073,13.47564 50.754278,44.48417 40.828768,53.59884 z"
   transform="matrix(2.1523961,0,0,2.1523961,344.13695,-185.20938)"
   style="fill:#008000;stroke:#000000;stroke-width:1.15970004;stroke-miterlimit:3.5" />
</g>
<g
   id="layer1_3_"
   inkscape:groupmode="layer"
   inkscape:label="Layer 1">
	
		<path
   id="path3797_3_"
   inkscape:flatsided="false"
   inkscape:randomized="0"
   inkscape:rounded="0.2"
   inkscape:transform-center-x="-32.713721"
   inkscape:transform-center-y="-2.5436384"
   sodipodi:arg1="0.78594215"
   sodipodi:arg2="1.6133242"
   sodipodi:cx="54.148804"
   sodipodi:cy="212.06393"
   sodipodi:r1="76.557526"
   sodipodi:r2="13.288133"
   sodipodi:sides="4"
   sodipodi:type="star"
   class="st0"
   d="M 108.25369,266.22772 C 98.19703,275.46283 67.237562,225.3474 53.583858,225.34005 40.108216,225.3328 9.099688,276.09433 -0.01498216,266.16882 -9.2500905,256.11216 40.865335,225.15269 40.872686,211.49899 40.879941,198.02335 -9.8815959,167.01482 0.04391455,157.90015 10.100577,148.66504 41.060045,198.78047 54.713749,198.78782 c 13.475642,0.007 44.48417,-50.75429 53.598841,-40.82877 9.23511,10.05666 -40.880317,41.01613 -40.887668,54.66983 -0.0073,13.47564 50.754278,44.48417 40.828768,53.59884 z"
   transform="matrix(2.1523961,0,0,2.1523961,344.13695,109.64338)"
   style="fill:#008000;stroke:#000000;stroke-width:1.15970004;stroke-miterlimit:3.5" />
</g>
</svg>